<svg width="24" height="21" viewBox="0 0 24 21" fill="none" xmlns="http://www.w3.org/2000/svg">
<path fill-rule="evenodd" clip-rule="evenodd" d="M6.73649 3.72694C4.65746 3.72694 2.5 5.33452 2.5 7.58556C2.5 10.2421 4.8236 12.681 7.36118 14.5279C8.60701 15.4347 9.85656 16.164 10.7965 16.6671C11.2656 16.9182 11.6557 17.1119 11.9269 17.2422C11.9523 17.2544 11.9767 17.2661 12 17.2772C12.0233 17.2661 12.0477 17.2544 12.0731 17.2422C12.3443 17.1119 12.7344 16.9182 13.2035 16.6671C14.1434 16.164 15.393 15.4347 16.6388 14.5279C19.1764 12.681 21.5 10.2421 21.5 7.58556C21.5 5.33452 19.3425 3.72694 17.2635 3.72694C15.1581 3.72694 13.4627 4.91439 12.7115 6.84099C12.6094 7.10281 12.3228 7.27941 12 7.27941C11.6772 7.27941 11.3906 7.10281 11.2885 6.84099C10.5373 4.91439 8.84185 3.72694 6.73649 3.72694ZM12 18.0061L12.3426 18.5765C12.1276 18.6709 11.8725 18.6709 11.6574 18.5765L12 18.0061ZM1 7.58556C1 4.6263 3.82903 2.44458 6.73649 2.44458C9.02981 2.44458 10.8808 3.49287 12 5.09891C13.1192 3.49287 14.9702 2.44458 17.2635 2.44458C20.171 2.44458 23 4.6263 23 7.58556C23 10.8498 20.1986 13.6212 17.6112 15.5044C16.2945 16.4627 14.9816 17.2283 13.9996 17.754C13.5078 18.0172 13.0971 18.2213 12.8078 18.3602C12.6631 18.4297 12.5486 18.483 12.4694 18.5193C12.4299 18.5374 12.3991 18.5513 12.3777 18.5609L12.3529 18.572L12.3459 18.5751L12.3438 18.576C12.3435 18.5761 12.3426 18.5765 12 18.0061C11.6574 18.5765 11.6576 18.5766 11.6574 18.5765L11.6541 18.5751L11.6471 18.572L11.6223 18.5609C11.6009 18.5513 11.5701 18.5374 11.5306 18.5193C11.4514 18.483 11.3369 18.4297 11.1922 18.3602C10.9029 18.2213 10.4922 18.0172 10.0004 17.754C9.01844 17.2283 7.70549 16.4627 6.38882 15.5044C3.80141 13.6212 1 10.8498 1 7.58556Z" fill="#E0E0E0"/>
</svg>
